<svg xmlns="http://www.w3.org/2000/svg" viewBox="0 0 1024 1024" width="1024" height="1024">
  <rect width="1024" height="1024" rx="246.9" ry="246.9" fill="#111113"/>
  <g fill="#F5F1E8" shape-rendering="geometricPrecision">
    <path d="M353.83,170.85L352.72,205.02L320.76,205.02L319.66,239.19L289.89,239.19L289.89,404.53L320.76,405.63L320.76,438.70L367.05,439.80L368.16,458.54L368.16,462.95L367.05,473.97L509.24,473.97L511.45,476.18L511.45,508.14L576.48,509.24L575.38,546.72L542.31,547.82L542.31,581.99L576.48,581.99L577.58,546.72L610.65,545.62L611.75,510.35L647.03,511.45L647.03,559.95L709.86,559.95L710.96,545.62L710.96,539.01L709.86,511.45L678.99,510.35L678.99,440.90L644.82,439.80L644.82,405.63L642.62,405.63L581.99,406.73L579.79,405.63L578.69,372.56L446.42,372.56L444.21,370.36L444.21,340.60L442.01,340.60L440.90,339.50L399.02,339.50L396.81,338.39L399.02,303.12L430.98,303.12L432.09,267.85L636.00,267.85L638.21,270.05L638.21,303.12L698.83,303.12L698.83,205.02L667.97,203.92L667.97,170.85Z"/>
    <path d="M294.30,547.82L294.30,607.35L349.42,607.35L349.42,547.82Z"/>
    <path d="M339.50,651.44L339.50,699.94L385.79,699.94L385.79,651.44Z"/>
    <path d="M583.10,596.32L584.20,637.11L624.98,637.11L624.98,595.22Z"/>
    <path d="M479.48,573.18L479.48,615.06L520.27,615.06L520.27,573.18Z"/>
    <path d="M380.28,573.18L381.38,615.06L421.06,615.06L421.06,573.18Z"/>
    <path d="M512.55,647.03L512.55,684.50L514.76,685.61L515.86,684.50L522.47,685.61L531.29,684.50L547.82,684.50L551.13,685.61L551.13,647.03Z"/>
    <path d="M456.34,696.63L456.34,731.90L493.81,731.90L493.81,696.63Z"/>
    <path d="M423.27,621.67L423.27,654.74L455.23,653.64L455.23,621.67Z"/>
    <path d="M630.49,669.07L630.49,699.94L660.25,699.94L660.25,669.07Z"/>
    <path d="M558.85,721.98L559.95,751.74L588.61,751.74L588.61,721.98Z"/>
    <path d="M421.06,781.50L421.06,810.16L449.72,809.06L449.72,781.50Z"/>
    <path d="M658.05,595.22L659.15,623.88L686.71,622.78L685.61,594.12Z"/>
    <path d="M705.45,721.98L705.45,744.03L726.39,744.03L727.49,721.98Z"/>
    <path d="M715.37,636.00L715.37,658.05L736.31,658.05L736.31,636.00Z"/>
    <path d="M531.29,822.29L531.29,838.82L548.93,838.82L548.93,821.18Z"/>
    <path d="M623.88,788.12L624.98,805.75L641.52,805.75L641.52,788.12Z"/>
    <path d="M766.07,774.89L767.17,790.32L782.60,790.32L782.60,774.89Z"/>
    <path d="M690.02,855.35L690.02,868.58L703.24,868.58L703.24,855.35Z"/>
  </g>
</svg>
